<svg id="Layer_1" data-name="Layer 1" xmlns="http://www.w3.org/2000/svg" viewBox="0 0 724.2 316.05"><defs><style>.cls-1{fill:#242424}</style></defs><title>MW_logo_mark_sort</title><path class="cls-1" d="M160.47 313.97h91.14L106.18 2.09 60.61 99.82l99.86 214.15zM312.98 313.97h91.15L258.7 2.09l-45.57 97.73 99.85 214.15z"/><path class="cls-1" d="M102.18 415.81c-21.55 0-39.09 17.27-39.09 38.5s17.54 38.51 39.09 38.51 39.09-17.27 39.09-38.51-17.53-38.5-39.09-38.5z" transform="translate(-63.09 -176.76)"/><path class="cls-1" d="M472.59 2.09l145.43 311.88 45.57-97.74L563.73 2.09h-91.14zM320.07 2.09L465.5 313.97l45.57-97.74L411.22 2.09h-91.15z"/><path class="cls-1" d="M748.21 176.76c-21.55 0-39.09 17.27-39.09 38.51s17.54 38.5 39.09 38.5 39.09-17.27 39.09-38.5-17.54-38.51-39.09-38.51z" transform="translate(-63.09 -176.76)"/></svg>