<svg id="Layer_1" data-name="Layer 1" xmlns="http://www.w3.org/2000/svg" viewBox="0 0 212.71 327.91"><defs><style>.cls-1{fill:#242424}</style></defs><title>MW_logo_stacked_sort</title><path class="cls-1" d="M79.16 153.86h44.97L52.38 0 29.9 48.22l49.26 105.64zM154.41 153.86h44.96L127.63 0l-22.49 48.22 49.27 105.64z"/><path class="cls-1" d="M320.5 252.89a19 19 0 1 0 19.28 19 19.16 19.16 0 0 0-19.28-19z" transform="translate(-301.22 -135.99)"/><path class="cls-1" d="M88.58 174.05l71.74 153.86 22.49-48.22-49.27-105.64H88.58zM13.33 174.05l71.75 153.86 22.48-48.22L58.3 174.05H13.33z"/><path class="cls-1" d="M494.64 309a19 19 0 1 0 19.28 19 19.16 19.16 0 0 0-19.28-19z" transform="translate(-301.22 -135.99)"/></svg>